<svg xmlns="http://www.w3.org/2000/svg" viewBox="0 0 289.944 289.944" style="enable-background:new 0 0 289.944 289.944" xml:space="preserve"><circle style="fill:#f9ba48" cx="93.772" cy="196.231" r="65.599"/><path style="fill:#333" d="m282.572 47.663-49.87 49.87 57.151-90.921L282.956.46l-32.027 25.62 10.936-19.689L255.526 0 49.375 112.451C19.42 128.598.058 161.482.058 196.231c0 51.674 42.04 93.713 93.713 93.713 32.617 0 62.357-16.597 79.572-44.425L289.886 53.407l-7.314-5.744zm-117.217 192.96c-15.477 25.017-42.237 39.95-71.583 39.95-46.505 0-84.342-37.837-84.342-84.342 0-31.347 17.426-60.998 44.415-75.542L245.827 15.973 231.634 41.52l-65.82 52.653 5.857 7.319 66.405-53.126.361.201.487-.881 28.236-22.59-88.334 140.528 7.933 4.986 23.508-37.401 51.458-51.458-96.37 158.872z"/><path transform="rotate(-30.972 142.973 95.523)" style="fill:#333" d="M129.309 90.835h27.32v9.371h-27.32z"/><path style="fill:#333" d="M56.287 196.231h-9.371c0 25.837 21.02 46.857 46.857 46.857v-9.371c-20.669 0-37.486-16.817-37.486-37.486z"/></svg>